<svg width="935" height="119" viewBox="0 0 935 119" fill="none" xmlns="http://www.w3.org/2000/svg">
<g clip-path="url(#clip0_490_934)">
<path d="M66.668 39.5559H133.335V0.666992H101.49C82.2582 0.666992 66.668 0.666992 66.668 21.0594V39.5559Z" fill="url(#paint0_linear_490_934)"/>
<path d="M133.335 78.4443H66.668V117.333H98.5124C117.744 117.333 133.335 117.333 133.335 96.9408V78.4443Z" fill="url(#paint1_linear_490_934)"/>
<path d="M133.333 0.666992H66.8889H0L3.26502e-06 78.4448H66.8889V39.5629L66.8796 37.9157C66.7622 17.3783 83.3783 0.666992 103.916 0.666992H133.333Z" fill="#00AF66"/>
<path d="M66.668 117.333H133.112H200.001V39.5557H133.112V78.4375L133.122 80.0847C133.239 100.622 116.623 117.333 96.0854 117.333H66.668Z" fill="#00AF66"/>
</g>
<path d="M315.323 34.6385C314.874 30.1125 312.948 26.5964 309.544 24.0902C306.14 21.584 301.521 20.331 295.685 20.331C291.72 20.331 288.373 20.892 285.642 22.0142C282.911 23.099 280.817 24.6139 279.358 26.5589C277.937 28.504 277.226 30.7109 277.226 33.1797C277.151 35.237 277.581 37.0324 278.516 38.5661C279.489 40.0997 280.817 41.4276 282.5 42.5497C284.183 43.6345 286.128 44.5883 288.335 45.4112C290.542 46.1967 292.899 46.87 295.405 47.4311L305.729 49.8999C310.741 51.022 315.342 52.5182 319.531 54.3885C323.721 56.2588 327.349 58.5592 330.416 61.2898C333.483 64.0204 335.859 67.2372 337.542 70.9403C339.263 74.6435 340.142 78.889 340.179 83.6768C340.142 90.709 338.346 96.8061 334.793 101.968C331.277 107.093 326.189 111.076 319.531 113.919C312.911 116.724 304.924 118.127 295.573 118.127C286.297 118.127 278.217 116.706 271.335 113.863C264.489 111.02 259.14 106.812 255.288 101.239C251.472 95.6278 249.471 88.6892 249.284 80.4226H272.793C273.055 84.2753 274.159 87.4922 276.104 90.0732C278.086 92.6167 280.723 94.5431 284.015 95.8523C287.344 97.1241 291.103 97.7599 295.293 97.7599C299.407 97.7599 302.979 97.1615 306.009 95.9645C309.076 94.7675 311.452 93.103 313.135 90.9709C314.818 88.8388 315.66 86.3887 315.66 83.6207C315.66 81.0398 314.893 78.8703 313.359 77.1122C311.863 75.3542 309.656 73.858 306.739 72.6236C303.858 71.3892 300.324 70.267 296.134 69.2571L283.622 66.1151C273.934 63.7585 266.285 60.0741 260.674 55.0618C255.063 50.0495 252.277 43.2978 252.314 34.8068C252.277 27.8494 254.128 21.7711 257.869 16.5717C261.647 11.3724 266.827 7.31392 273.411 4.3963C279.994 1.47869 287.475 0.0198821 295.854 0.0198821C304.382 0.0198821 311.826 1.47869 318.185 4.3963C324.581 7.31392 329.556 11.3724 333.109 16.5717C336.663 21.7711 338.496 27.7933 338.608 34.6385H315.323ZM392.432 30.3182V48.2727H340.532V30.3182H392.432ZM352.315 9.67045H376.217V90.017C376.217 92.224 376.553 93.9446 377.227 95.179C377.9 96.3759 378.835 97.2176 380.032 97.7038C381.266 98.1901 382.688 98.4332 384.296 98.4332C385.418 98.4332 386.54 98.3397 387.663 98.1527C388.785 97.9283 389.645 97.7599 390.244 97.6477L394.003 115.434C392.806 115.808 391.123 116.238 388.953 116.724C386.784 117.248 384.146 117.566 381.042 117.678C375.281 117.903 370.232 117.136 365.893 115.378C361.591 113.62 358.243 110.889 355.849 107.186C353.455 103.483 352.277 98.8073 352.315 93.1591V9.67045ZM423.097 118.127C417.598 118.127 412.698 117.173 408.397 115.266C404.095 113.321 400.691 110.459 398.185 106.681C395.716 102.866 394.482 98.1153 394.482 92.4297C394.482 87.6418 395.361 83.6207 397.119 80.3665C398.877 77.1122 401.271 74.4938 404.301 72.5114C407.331 70.5289 410.772 69.0327 414.625 68.0227C418.515 67.0128 422.592 66.3021 426.856 65.8906C431.869 65.367 435.908 64.8807 438.976 64.4318C442.043 63.9455 444.268 63.2348 445.652 62.2997C447.036 61.3646 447.728 59.9806 447.728 58.1477V57.8111C447.728 54.2576 446.606 51.5083 444.362 49.5632C442.155 47.6181 439.013 46.6456 434.936 46.6456C430.634 46.6456 427.212 47.5994 424.668 49.5071C422.124 51.3774 420.441 53.7339 419.618 56.5767L397.512 54.7812C398.634 49.5445 400.841 45.0185 404.133 41.2031C407.424 37.3504 411.67 34.3954 416.869 32.3381C422.106 30.2434 428.165 29.196 435.048 29.196C439.836 29.196 444.418 29.7571 448.794 30.8793C453.208 32.0014 457.117 33.7408 460.521 36.0973C463.962 38.4538 466.674 41.4837 468.657 45.1868C470.639 48.8525 471.63 53.2476 471.63 58.3722V116.5H448.963V104.549H448.289C446.905 107.242 445.054 109.617 442.735 111.675C440.416 113.695 437.629 115.284 434.375 116.444C431.12 117.566 427.361 118.127 423.097 118.127ZM429.942 101.631C433.458 101.631 436.563 100.939 439.256 99.5554C441.949 98.134 444.063 96.2263 445.596 93.8324C447.13 91.4384 447.897 88.7266 447.897 85.6967V76.5511C447.149 77.0374 446.12 77.4863 444.811 77.8977C443.539 78.2718 442.099 78.6271 440.49 78.9638C438.882 79.263 437.274 79.5436 435.665 79.8054C434.057 80.0298 432.598 80.2356 431.289 80.4226C428.483 80.834 426.033 81.4886 423.939 82.3864C421.844 83.2841 420.217 84.4998 419.057 86.0334C417.898 87.5296 417.318 89.3999 417.318 91.6442C417.318 94.8984 418.496 97.3859 420.853 99.1065C423.247 100.79 426.276 101.631 429.942 101.631ZM519.633 118.183C510.805 118.183 503.212 116.313 496.853 112.572C490.532 108.795 485.669 103.558 482.265 96.8622C478.899 90.1667 477.215 82.4612 477.215 73.7457C477.215 64.9181 478.917 57.1752 482.321 50.517C485.762 43.8215 490.644 38.6035 496.965 34.8629C503.287 31.085 510.805 29.196 519.521 29.196C527.039 29.196 533.623 30.5613 539.271 33.2919C544.919 36.0225 549.389 39.8565 552.681 44.794C555.972 49.7315 557.786 55.5294 558.123 62.1875H535.568C534.932 57.8859 533.249 54.4259 530.518 51.8075C527.825 49.1518 524.29 47.8239 519.914 47.8239C516.21 47.8239 512.975 48.8338 510.207 50.8537C507.476 52.8362 505.344 55.7351 503.811 59.5504C502.277 63.3658 501.51 67.9853 501.51 73.4091C501.51 78.9077 502.258 83.5833 503.754 87.4361C505.288 91.2888 507.439 94.2251 510.207 96.245C512.975 98.2649 516.21 99.2749 519.914 99.2749C522.644 99.2749 525.094 98.7138 527.264 97.5916C529.471 96.4695 531.285 94.8423 532.706 92.7102C534.165 90.5407 535.119 87.941 535.568 84.9112H558.123C557.749 91.4946 555.954 97.2924 552.737 102.305C549.557 107.28 545.162 111.17 539.551 113.975C533.941 116.781 527.301 118.183 519.633 118.183ZM585.604 91.7003L585.66 63.0291H589.139L616.744 30.3182H644.181L607.094 73.6335H601.427L585.604 91.7003ZM563.946 116.5V1.59091H587.848V116.5H563.946ZM617.81 116.5L592.449 78.9638L608.384 62.0753L645.808 116.5H617.81ZM752.471 59.0455C752.471 71.5762 750.096 82.2367 745.346 91.027C740.633 99.8172 734.199 106.531 726.045 111.17C717.928 115.771 708.801 118.071 698.664 118.071C688.452 118.071 679.288 115.752 671.171 111.114C663.054 106.475 656.639 99.7611 651.926 90.9709C647.213 82.1806 644.856 71.5388 644.856 59.0455C644.856 46.5147 647.213 35.8542 651.926 27.0639C656.639 18.2737 663.054 11.5781 671.171 6.97727C679.288 2.33901 688.452 0.0198821 698.664 0.0198821C708.801 0.0198821 717.928 2.33901 726.045 6.97727C734.199 11.5781 740.633 18.2737 745.346 27.0639C750.096 35.8542 752.471 46.5147 752.471 59.0455ZM727.84 59.0455C727.84 50.9285 726.624 44.0833 724.193 38.5099C721.799 32.9366 718.414 28.7098 714.038 25.8295C709.661 22.9493 704.537 21.5092 698.664 21.5092C692.791 21.5092 687.667 22.9493 683.29 25.8295C678.914 28.7098 675.51 32.9366 673.079 38.5099C670.685 44.0833 669.488 50.9285 669.488 59.0455C669.488 67.1624 670.685 74.0076 673.079 79.581C675.51 85.1544 678.914 89.3812 683.29 92.2614C687.667 95.1416 692.791 96.5817 698.664 96.5817C704.537 96.5817 709.661 95.1416 714.038 92.2614C718.414 89.3812 721.799 85.1544 724.193 79.581C726.624 74.0076 727.84 67.1624 727.84 59.0455ZM784.441 66.6761V116.5H760.539V30.3182H783.319V45.5234H784.329C786.237 40.5111 789.435 36.5462 793.923 33.6285C798.412 30.6735 803.855 29.196 810.251 29.196C816.236 29.196 821.454 30.5052 825.905 33.1236C830.356 35.7419 833.816 39.4825 836.285 44.3452C838.754 49.1705 839.988 54.9309 839.988 61.6264V116.5H816.086V65.8906C816.123 60.6165 814.777 56.5019 812.046 53.5469C809.316 50.5545 805.556 49.0582 800.769 49.0582C797.552 49.0582 794.709 49.7502 792.24 51.1342C789.809 52.5182 787.901 54.5381 786.517 57.1939C785.171 59.8123 784.479 62.973 784.441 66.6761ZM888.622 118.183C879.757 118.183 872.126 116.388 865.73 112.797C859.371 109.169 854.471 104.044 851.03 97.4233C847.588 90.7652 845.868 82.8913 845.868 73.8018C845.868 64.9368 847.588 57.1565 851.03 50.4609C854.471 43.7654 859.315 38.5473 865.562 34.8068C871.846 31.0663 879.214 29.196 887.668 29.196C893.354 29.196 898.647 30.1125 903.547 31.9453C908.484 33.7408 912.786 36.4526 916.451 40.081C920.155 43.7093 923.035 48.2727 925.092 53.7713C927.149 59.2325 928.178 65.6288 928.178 72.9602V79.5249H855.406V64.7124H905.679C905.679 61.2711 904.931 58.2225 903.434 55.5668C901.938 52.911 899.862 50.835 897.206 49.3388C894.588 47.8052 891.54 47.0384 888.061 47.0384C884.433 47.0384 881.216 47.88 878.41 49.5632C875.642 51.209 873.473 53.4347 871.902 56.2401C870.331 59.008 869.526 62.094 869.489 65.4979V79.581C869.489 83.8452 870.275 87.5296 871.846 90.6342C873.454 93.7389 875.717 96.1328 878.635 97.8161C881.552 99.4993 885.012 100.341 889.015 100.341C891.67 100.341 894.102 99.9669 896.309 99.2188C898.516 98.4706 900.405 97.3485 901.976 95.8523C903.547 94.3561 904.744 92.5232 905.567 90.3537L927.673 91.8125C926.551 97.1241 924.25 101.762 920.772 105.727C917.33 109.655 912.879 112.722 907.418 114.929C901.994 117.098 895.729 118.183 888.622 118.183Z" fill="white"/>
<defs>
<linearGradient id="paint0_linear_490_934" x1="133.335" y1="20.1114" x2="66.668" y2="20.1114" gradientUnits="userSpaceOnUse">
<stop stop-color="#00AF66"/>
<stop offset="1" stop-color="#285C4D"/>
</linearGradient>
<linearGradient id="paint1_linear_490_934" x1="66.668" y1="97.8888" x2="133.335" y2="97.8888" gradientUnits="userSpaceOnUse">
<stop stop-color="#00AF66"/>
<stop offset="1" stop-color="#285C4D"/>
</linearGradient>
<clipPath id="clip0_490_934">
<rect width="200" height="116.667" fill="white" transform="translate(0 0.666992)"/>
</clipPath>
</defs>
</svg>
